<svg width="100" height="100" viewBox="0 0 100 100" fill="none" xmlns="http://www.w3.org/2000/svg">
  <rect width="100" height="100" fill="#F3F4F6"/>
  <path d="M30 35C30 32.2386 32.2386 30 35 30H65C67.7614 30 70 32.2386 70 35V65C70 67.7614 67.7614 70 65 70H35C32.2386 70 30 67.7614 30 65V35Z" fill="#E5E7EB"/>
  <path d="M35 40L45 50L55 40L65 50V65C65 66.1046 64.1046 67 63 67H37C35.8954 67 35 66.1046 35 65V40Z" fill="#D1D5DB"/>
  <circle cx="40" cy="45" r="3" fill="#9CA3AF"/>
  <path d="M35 55L45 65L55 55L65 65" stroke="#9CA3AF" stroke-width="2" stroke-linecap="round"/>
</svg> 